<?xml version="1.0" standalone="no"?>
<!DOCTYPE svg PUBLIC "-//W3C//DTD SVG 20010904//EN"
 "http://www.w3.org/TR/2001/REC-SVG-20010904/DTD/svg10.dtd">
<svg version="1.0" xmlns="http://www.w3.org/2000/svg"
 width="648.000000pt" height="688.000000pt" viewBox="0 0 648.000000 688.000000"
 preserveAspectRatio="xMidYMid meet">

<g transform="translate(0.000000,688.000000) scale(0.100000,-0.100000)"
fill="#000000" stroke="none">
<path d="M2994 6540 c-327 -29 -750 -173 -1004 -341 -230 -152 -405 -313 -564
-521 -241 -317 -374 -611 -463 -1028 -23 -108 -26 -511 -4 -630 69 -389 176
-643 403 -963 97 -136 163 -213 208 -243 l39 -26 -15 -37 c-33 -74 -260 -686
-269 -723 -4 -16 -4 -28 -1 -28 13 0 91 43 191 105 181 112 566 335 580 335 3
0 18 -14 33 -32 36 -43 291 -165 442 -212 129 -40 330 -79 495 -96 303 -32
723 44 1063 191 284 123 448 233 642 428 161 162 248 268 349 428 174 275 282
564 327 878 21 147 24 461 6 590 -74 510 -373 1063 -754 1394 -85 75 -291 215
-412 280 -136 74 -410 176 -556 206 -211 45 -529 64 -736 45z m594 -144 c309
-63 484 -129 747 -284 95 -56 128 -84 113 -93 -10 -7 -8 -9 5 -9 10 0 16 -4
12 -9 -3 -5 -1 -12 5 -16 5 -3 10 -15 10 -25 0 -11 16 -32 35 -47 19 -15 35
-32 35 -36 0 -9 -35 16 -98 69 -89 75 -266 176 -412 234 -359 144 -720 197
-1044 155 -550 -72 -991 -301 -1320 -684 -150 -175 -204 -257 -334 -511 -46
-91 -88 -166 -92 -168 -5 -2 -18 1 -29 7 -14 8 -21 8 -25 -2 -3 -6 -3 2 1 18
17 91 137 338 238 489 170 255 400 483 649 641 172 110 517 235 751 274 179
30 174 29 410 26 185 -4 239 -8 343 -29z m-58 -191 c291 -44 611 -175 836
-343 113 -84 281 -252 365 -364 142 -191 276 -465 343 -698 95 -331 84 -697
-29 -1032 -110 -324 -291 -616 -511 -828 -268 -257 -604 -424 -999 -497 -124
-22 -464 -25 -595 -5 -85 14 -259 58 -335 85 -71 26 -249 113 -308 150 -32 21
-62 37 -68 37 -6 0 -23 -9 -37 -20 -113 -85 -568 -370 -590 -370 -20 0 44 179
128 360 138 298 239 575 221 607 -17 33 -69 75 -87 71 -24 -4 -49 -50 -88
-159 l-33 -91 -81 108 c-201 268 -331 592 -367 919 -43 381 18 695 201 1044
189 358 430 618 752 806 90 52 268 127 403 168 100 30 163 43 354 71 65 9 425
-3 525 -19z m980 -226 c0 -14 -17 -10 -23 5 -4 10 -1 13 9 9 7 -3 14 -9 14
-14z m244 -211 c42 -44 73 -85 70 -90 -3 -5 -13 0 -21 11 -8 12 -18 19 -23 16
-4 -3 -13 2 -20 10 -16 19 -31 19 -24 0 10 -25 -10 -17 -45 19 -18 19 -30 39
-27 44 3 6 1 14 -5 18 -8 4 -9 3 -5 -4 10 -16 -2 -15 -18 1 -7 7 -11 18 -8 25
2 7 -2 10 -11 7 -7 -3 -20 1 -27 10 -10 12 -10 15 4 15 9 0 16 -3 16 -7 0 -5
12 -9 28 -9 15 -1 21 1 15 3 -7 3 -13 11 -13 19 0 8 -6 17 -14 20 -8 3 -17 12
-20 21 -10 25 69 -43 148 -129z m97 -115 c13 -16 12 -17 -3 -4 -10 7 -18 15
-18 17 0 8 8 3 21 -13z m-3664 -831 l23 -17 -21 -100 c-18 -84 -21 -139 -23
-350 -1 -166 3 -277 12 -330 7 -44 14 -87 16 -95 1 -8 9 -37 18 -65 9 -27 28
-90 43 -140 15 -49 43 -123 61 -163 19 -40 34 -74 34 -77 0 -2 13 -25 29 -52
31 -50 45 -120 24 -116 -7 2 -15 -7 -18 -18 -7 -20 -8 -20 -27 7 -27 40 -158
304 -158 318 0 7 -11 41 -25 75 -29 69 -77 265 -96 386 -20 131 -15 390 10
530 25 138 50 225 65 225 6 0 21 -8 33 -18z m447 -1853 c49 -54 61 -81 23 -53
-28 22 -91 104 -78 104 5 0 30 -23 55 -51z"/>
<path d="M4386 6016 c3 -8 12 -12 21 -9 12 5 12 7 1 14 -20 13 -28 11 -22 -5z"/>
<path d="M4445 5970 c-3 -5 -1 -10 4 -10 6 0 11 5 11 10 0 6 -2 10 -4 10 -3 0
-8 -4 -11 -10z"/>
<path d="M3139 6121 c-85 -85 37 -214 129 -136 75 63 32 165 -68 165 -21 0
-41 -9 -61 -29z"/>
<path d="M2825 6050 c-23 -25 -13 -67 21 -82 47 -22 106 48 74 88 -18 21 -74
18 -95 -6z"/>
<path d="M3478 6045 c-18 -40 3 -75 45 -75 38 0 57 15 57 46 0 54 -80 76 -102
29z"/>
<path d="M2572 5988 c-17 -17 -15 -52 6 -78 16 -19 22 -21 40 -11 27 14 37 52
22 80 -12 23 -49 28 -68 9z"/>
<path d="M3760 5981 c-5 -11 -10 -26 -10 -34 0 -16 31 -47 48 -47 17 0 52 37
52 54 0 41 -71 62 -90 27z"/>
<path d="M2396 5915 c-20 -20 -21 -78 -2 -94 24 -20 69 -9 86 22 13 24 13 30
0 55 -18 32 -60 41 -84 17z"/>
<path d="M3926 5915 c-22 -23 -20 -42 9 -70 30 -31 47 -31 82 -1 l28 24 -21
29 c-25 33 -73 42 -98 18z"/>
<path d="M3030 5864 c-207 -32 -404 -97 -582 -195 -90 -50 -248 -170 -328
-249 -211 -210 -346 -460 -422 -780 -20 -83 -23 -121 -22 -300 1 -226 16 -326
75 -504 72 -217 284 -536 435 -656 276 -219 488 -313 840 -371 151 -25 277
-22 470 11 398 68 764 312 1000 665 170 255 254 537 255 855 0 266 -56 493
-176 715 -158 292 -382 507 -680 655 -233 115 -436 161 -705 158 -74 0 -146
-2 -160 -4z m442 -154 c147 -25 249 -59 379 -127 408 -211 698 -616 758 -1056
37 -271 -30 -623 -167 -873 -133 -245 -342 -446 -587 -568 -202 -101 -327
-132 -570 -142 -318 -14 -590 60 -851 232 -410 269 -623 678 -624 1195 0 262
82 525 239 764 185 282 550 516 906 580 113 21 383 18 517 -5z"/>
<path d="M3062 5464 c-70 -18 -131 -55 -203 -122 -69 -64 -126 -169 -136 -249
l-6 -53 469 0 c258 0 480 3 492 7 22 5 23 9 17 52 -3 25 -21 79 -40 119 -57
120 -169 213 -299 248 -66 18 -226 17 -294 -2z m267 -110 c51 -10 39 -35 -16
-33 -27 0 -64 -4 -83 -10 -19 -6 -57 -11 -85 -11 -38 0 -72 -10 -145 -45 -51
-24 -96 -42 -99 -39 -6 6 78 92 104 106 58 32 236 49 324 32z m71 -20 c0 -2
-7 -4 -15 -4 -8 0 -15 4 -15 10 0 5 7 7 15 4 8 -4 15 -8 15 -10z"/>
<path d="M2355 5119 c-34 -19 -45 -41 -45 -85 0 -53 33 -84 91 -84 51 0 67 8
84 41 22 41 19 65 -12 99 -31 34 -86 48 -118 29z"/>
<path d="M3971 5116 c-54 -30 -66 -97 -25 -145 21 -26 33 -31 69 -31 58 0 71
6 96 46 16 26 19 43 15 70 -12 61 -95 93 -155 60z"/>
<path d="M2720 4844 c0 -56 3 -73 16 -78 21 -8 235 -8 452 1 l172 6 -15 23
c-12 19 -12 24 0 34 8 7 12 16 9 21 -3 5 3 12 13 15 10 3 25 9 34 14 9 5 39 5
65 1 27 -5 41 -9 32 -10 -31 -2 -21 -31 11 -31 16 0 31 -6 35 -15 3 -9 0 -15
-9 -15 -8 0 -19 -9 -25 -20 -10 -19 -8 -20 52 -19 35 0 72 4 83 8 19 8 18 9
-7 21 -23 11 -28 20 -28 47 0 35 10 44 55 47 14 0 25 6 25 11 0 7 -169 10
-485 10 l-485 1 0 -72z"/>
<path d="M2242 4843 c-11 -21 -34 -83 -52 -138 -55 -172 -54 -423 4 -592 41
-122 75 -183 100 -183 62 0 83 58 46 130 -52 101 -84 309 -70 448 12 116 17
135 57 230 l36 84 -24 23 c-13 13 -36 27 -51 30 -24 6 -29 2 -46 -32z"/>
<path d="M4086 4859 c-33 -26 -33 -41 4 -127 46 -110 60 -176 60 -293 0 -125
-20 -249 -55 -347 -27 -75 -32 -131 -13 -150 7 -7 27 -12 45 -12 41 0 61 29
98 140 48 147 66 328 45 471 -12 86 -77 299 -97 322 -21 23 -54 22 -87 -4z"/>
<path d="M2008 4708 c-32 -24 -40 -72 -45 -253 -6 -193 10 -332 41 -381 26
-39 116 -28 116 15 0 10 -9 53 -20 97 -24 91 -29 318 -9 430 9 54 9 68 -2 79
-22 21 -62 27 -81 13z"/>
<path d="M4341 4701 c-25 -25 -25 -22 -5 -91 24 -88 29 -269 10 -378 -27 -157
-21 -182 49 -182 33 0 50 37 69 157 33 200 28 409 -12 477 -23 40 -79 49 -111
17z"/>
<path d="M2464 4647 c-34 -30 -40 -83 -26 -237 22 -237 131 -455 295 -589 89
-73 220 -139 320 -159 l82 -17 3 -121 3 -120 -183 4 -183 4 -27 -25 c-38 -35
-37 -79 0 -116 l27 -28 438 1 438 1 19 25 c24 32 30 64 16 92 -21 41 -50 48
-228 48 l-168 0 0 120 0 120 29 0 c16 0 60 10 97 21 267 82 469 298 540 577
20 77 24 120 24 234 0 137 0 139 -26 163 -33 30 -53 31 -88 4 -25 -19 -26 -25
-26 -112 0 -280 -57 -428 -227 -587 -223 -210 -551 -215 -796 -12 -92 76 -164
189 -206 326 -17 56 -21 94 -21 213 0 139 -1 145 -25 168 -30 31 -66 32 -101
2z"/>
<path d="M2725 4571 l0 -81 96 0 c53 0 145 3 205 8 l109 7 -110 6 c-60 3 -138
12 -172 20 -62 13 -63 14 -63 46 l0 33 58 0 c32 0 62 4 68 9 5 5 18 11 29 14
11 3 -21 5 -71 6 -50 0 -104 4 -120 7 l-29 6 0 -81z"/>
<path d="M2998 4633 c6 -2 18 -2 25 0 6 3 1 5 -13 5 -14 0 -19 -2 -12 -5z"/>
<path d="M3220 4632 c0 -4 5 -13 10 -18 12 -12 -14 -84 -31 -84 -10 0 -39 -24
-39 -33 0 -2 118 -5 263 -5 l262 -1 2 75 3 74 -235 0 c-129 0 -235 -4 -235 -8z
m220 -22 c0 -5 -9 -10 -20 -10 -25 0 -16 -26 11 -33 15 -4 20 -12 17 -29 -2
-19 -9 -23 -37 -23 -29 0 -34 3 -37 28 -1 15 2 27 7 27 5 0 9 11 9 25 0 20 5
25 25 25 14 0 25 -4 25 -10z"/>
<path d="M2736 4325 c32 -148 169 -319 294 -366 183 -69 353 -40 488 86 96 89
147 174 166 279 l7 38 -481 -3 -480 -4 6 -30z"/>
<path d="M2352 3897 c-24 -26 -29 -66 -10 -85 7 -7 27 -12 45 -12 63 0 98 71
51 104 -32 22 -61 20 -86 -7z"/>
<path d="M4023 3853 c-25 -5 -31 -34 -10 -51 6 -6 28 -13 48 -17 32 -6 37 -4
42 16 13 47 -14 65 -80 52z"/>
<path d="M2409 3681 c-37 -37 -38 -79 -3 -120 22 -26 33 -31 70 -31 69 0 101
39 95 115 -3 34 -47 65 -92 65 -31 0 -47 -7 -70 -29z"/>
<path d="M3922 3687 c-65 -69 21 -157 112 -115 30 13 40 39 31 76 -11 44 -34
62 -80 62 -30 0 -47 -6 -63 -23z"/>
<path d="M2172 5778 c-17 -17 -15 -73 2 -87 17 -14 50 -1 60 24 8 21 -9 61
-29 69 -21 8 -19 8 -33 -6z"/>
<path d="M4249 5709 c-23 -44 25 -91 59 -57 18 18 14 56 -7 68 -29 15 -39 13
-52 -11z"/>
<path d="M1917 5523 c-12 -12 -7 -50 8 -63 12 -10 17 -8 26 13 6 14 9 33 6 41
-7 16 -28 21 -40 9z"/>
<path d="M4460 5500 c0 -5 5 -10 10 -10 6 0 10 5 10 10 0 6 -4 10 -10 10 -5 0
-10 -4 -10 -10z"/>
<path d="M1823 5420 c-35 -14 -47 -47 -28 -76 19 -29 48 -31 76 -3 38 38 2 98
-48 79z"/>
<path d="M4562 5398 c-17 -17 -15 -32 6 -51 26 -24 41 -21 48 10 5 19 2 30
-11 40 -23 16 -28 16 -43 1z"/>
<path d="M1636 5204 c-22 -22 -20 -48 7 -78 28 -33 61 -26 82 17 14 27 14 33
0 54 -18 27 -65 31 -89 7z"/>
<path d="M4700 5201 c0 -5 -3 -18 -6 -28 -3 -11 -2 -14 3 -7 11 14 43 25 43
15 0 -5 -7 -14 -15 -21 -19 -16 -19 -49 -1 -56 8 -3 24 0 36 6 17 9 21 19 18
53 -3 41 -4 42 -40 45 -21 2 -38 -1 -38 -7z"/>
<path d="M1550 4983 c-26 -10 -50 -35 -50 -53 0 -28 39 -70 66 -70 30 0 64 33
64 63 0 25 -34 67 -53 66 -7 0 -19 -3 -27 -6z"/>
<path d="M4807 4962 c-24 -26 -21 -55 7 -81 48 -46 103 0 80 67 -12 34 -61 43
-87 14z"/>
<path d="M1460 4710 c-37 -37 -14 -100 37 -100 38 0 67 54 45 86 -7 11 -45 34
-56 34 -3 0 -15 -9 -26 -20z"/>
<path d="M4892 4704 c-28 -19 -29 -57 -2 -84 26 -26 55 -25 74 2 21 30 20 54
-4 78 -24 24 -38 25 -68 4z"/>
<path d="M1386 4429 c-56 -44 -54 -114 5 -164 50 -42 131 -26 157 30 36 78 -9
155 -91 155 -30 0 -53 -7 -71 -21z"/>
<path d="M4913 4430 c-42 -25 -56 -54 -48 -99 10 -55 50 -91 101 -91 105 0
149 125 66 190 -31 25 -78 25 -119 0z"/>
<path d="M1456 4054 c-17 -16 -21 -51 -8 -70 4 -6 17 -16 28 -22 18 -10 27 -8
48 9 30 23 33 45 10 77 -18 26 -56 29 -78 6z"/>
<path d="M4886 4054 c-22 -21 -20 -50 4 -74 26 -26 42 -25 68 3 27 28 28 49 4
70 -23 21 -56 22 -76 1z"/>
<path d="M4810 3779 c-9 -16 -9 -28 0 -50 16 -36 61 -41 84 -7 14 19 13 24 -5
50 -25 34 -63 38 -79 7z m70 -9 c0 -5 -5 -10 -11 -10 -5 0 -7 5 -4 10 3 6 8
10 11 10 2 0 4 -4 4 -10z"/>
<path d="M4755 3551 c34 -21 38 -21 29 3 -3 9 -17 16 -33 16 l-26 0 30 -19z"/>
<path d="M1634 3545 c-11 -29 2 -37 19 -11 15 23 16 26 2 26 -9 0 -18 -7 -21
-15z"/>
<path d="M4709 3487 c9 -25 38 -34 54 -18 13 13 7 19 -31 30 -29 9 -30 8 -23
-12z"/>
<path d="M1640 3472 c0 -15 32 -24 44 -12 7 7 7 10 -1 10 -6 0 -18 3 -27 6 -9
3 -16 2 -16 -4z"/>
<path d="M4477 3192 c-23 -25 -21 -35 10 -49 36 -17 38 -17 52 13 21 47 -27
75 -62 36z"/>
<path d="M2090 3162 c0 -4 10 -13 23 -21 22 -14 22 -14 3 8 -20 22 -26 25 -26
13z"/>
<path d="M4279 3024 c-15 -7 -32 -27 -39 -44 -11 -27 -10 -33 5 -50 39 -43 95
-10 95 57 0 41 -25 57 -61 37z"/>
<path d="M2118 2999 c-22 -12 -24 -62 -4 -78 20 -17 67 -10 80 11 16 27 -4 72
-34 75 -14 2 -33 -2 -42 -8z"/>
<path d="M2412 2834 c-27 -19 -28 -34 -1 -68 26 -33 52 -33 73 -1 21 32 20 48
-2 68 -23 21 -41 21 -70 1z"/>
<path d="M3977 2832 c-10 -10 -17 -25 -17 -33 0 -23 30 -59 49 -59 40 0 68 69
39 98 -18 18 -53 15 -71 -6z"/>
<path d="M3782 2743 c-11 -21 -1 -53 22 -72 34 -28 76 45 44 77 -18 18 -56 15
-66 -5z"/>
<path d="M3165 2701 c-106 -46 -66 -201 52 -201 39 0 93 60 93 104 0 68 -83
124 -145 97z"/>
<path d="M3518 2684 c-34 -18 -38 -62 -9 -88 25 -23 57 -13 76 24 13 26 13 30
-6 54 -24 30 -25 30 -61 10z"/>
<path d="M2845 2670 c-23 -25 -13 -67 20 -82 48 -22 88 48 49 86 -21 22 -47
20 -69 -4z"/>
<path d="M4885 2316 c-17 -7 -43 -28 -58 -45 -47 -57 -35 -163 25 -217 72 -66
182 -43 228 46 43 84 17 170 -62 209 -50 24 -89 26 -133 7z"/>
<path d="M2060 2260 c-8 -5 -10 -10 -5 -10 6 0 17 5 25 10 8 5 11 10 5 10 -5
0 -17 -5 -25 -10z"/>
<path d="M5613 2080 c-56 -34 -76 -95 -49 -148 27 -53 51 -66 103 -57 27 4 59
7 73 7 24 -1 25 2 27 71 2 40 -2 84 -8 98 -20 49 -90 63 -146 29z m70 -21 c28
-12 42 -34 51 -76 6 -26 3 -34 -20 -52 -37 -29 -78 -27 -103 5 -28 36 -26 66
5 103 29 34 33 36 67 20z"/>
<path d="M5451 2076 c-13 -16 -5 -186 9 -186 10 0 22 182 12 192 -5 5 -14 2
-21 -6z"/>
<path d="M747 1435 c-202 -51 -323 -248 -273 -445 41 -160 153 -263 317 -290
169 -29 346 65 425 225 37 77 46 200 19 273 -36 96 -127 186 -225 224 -70 27
-186 32 -263 13z m174 -160 c90 -32 146 -120 137 -214 -10 -107 -96 -192 -195
-193 -127 0 -216 89 -216 217 0 94 49 163 134 190 58 18 88 18 140 0z"/>
<path d="M3465 1437 c-131 -34 -226 -106 -274 -207 -22 -46 -26 -69 -26 -140
0 -75 4 -93 32 -152 62 -132 173 -216 314 -238 182 -28 376 83 428 244 29 90
34 138 21 203 -25 120 -95 206 -218 265 -52 24 -81 31 -146 34 -46 2 -103 -2
-131 -9z m188 -171 c69 -30 114 -94 124 -175 8 -69 -30 -149 -87 -187 -54 -36
-141 -44 -205 -19 -77 29 -135 117 -135 204 0 36 38 117 67 143 50 46 169 63
236 34z"/>
<path d="M5453 1441 c-119 -31 -235 -128 -271 -227 -32 -88 -35 -122 -18 -201
18 -88 51 -146 117 -208 82 -77 214 -119 303 -96 l45 11 74 -76 73 -76 54 34
c30 20 65 38 76 42 12 4 29 15 39 26 16 18 17 21 1 44 -9 14 -41 44 -71 66
-30 22 -55 42 -55 44 0 2 15 19 33 37 114 114 97 361 -32 482 -72 68 -149 99
-251 103 -47 2 -99 -1 -117 -5z m165 -167 c81 -33 131 -111 132 -202 0 -43
-17 -99 -36 -121 -2 -2 -19 10 -39 28 -43 37 -94 42 -125 11 -28 -28 -26 -38
19 -81 l40 -37 -26 -5 c-40 -7 -119 20 -160 56 -73 64 -92 161 -49 253 44 95
150 138 244 98z"/>
<path d="M1330 1102 c0 -187 3 -354 6 -371 l7 -31 83 2 84 3 0 113 0 112 48 0
48 0 56 -82 c30 -46 62 -95 71 -109 15 -25 19 -26 139 -31 68 -3 149 -3 180
-1 56 5 57 5 76 52 11 25 22 55 24 66 3 19 10 20 158 17 85 -2 157 -5 161 -8
3 -2 16 -31 28 -64 l22 -60 100 0 99 0 -15 38 c-19 43 -147 324 -243 532 l-67
145 -88 3 c-56 2 -87 -1 -87 -8 0 -5 -23 -61 -51 -123 -28 -61 -89 -202 -135
-312 -47 -110 -90 -205 -97 -212 -10 -10 -27 8 -85 86 -39 55 -72 102 -72 105
0 3 8 6 18 6 29 0 91 59 119 114 53 103 25 227 -64 290 -77 54 -101 59 -320
64 l-203 4 0 -340z m291 168 c71 0 83 -3 104 -25 35 -34 34 -93 -1 -126 -23
-21 -36 -24 -120 -27 l-94 -4 0 97 c0 84 2 96 16 91 9 -3 51 -6 95 -6z m699
-72 c0 -5 18 -55 40 -109 22 -55 40 -102 40 -104 0 -7 -75 -6 -136 1 l-51 6
46 113 c40 98 61 131 61 93z"/>
<path d="M2590 1365 c0 -41 0 -78 0 -82 0 -5 48 -8 106 -8 l106 0 -1 -289 c-2
-263 -1 -288 14 -282 9 3 50 6 91 6 l74 0 0 285 0 285 105 0 105 0 0 80 0 80
-300 0 -300 0 0 -75z"/>
<path d="M4045 1216 c-4 -125 -4 -289 0 -366 l7 -140 89 0 89 0 0 110 0 110
48 0 c47 0 47 0 85 -63 21 -34 53 -83 70 -109 l32 -48 98 0 c53 0 97 4 97 9 0
4 -37 59 -81 122 -74 102 -80 114 -64 124 49 27 105 89 119 132 44 127 -6 247
-128 311 -50 26 -56 27 -252 30 l-201 4 -8 -226z m368 49 c22 -9 47 -56 47
-90 0 -16 -12 -38 -29 -56 -28 -28 -33 -29 -119 -29 l-90 0 4 93 c1 50 3 93 3
94 2 5 168 -6 184 -12z"/>
<path d="M4894 1431 c-2 -2 -4 -166 -4 -363 l0 -358 95 0 95 0 0 213 c0 118
-3 282 -7 365 l-6 152 -84 -2 c-46 -2 -86 -5 -89 -7z"/>
<path d="M3125 731 c3 -6 1 -29 -4 -53 -10 -44 -7 -43 25 9 10 14 14 16 25 6
7 -7 17 -13 21 -13 5 0 -7 14 -25 30 -34 29 -54 39 -42 21z"/>
<path d="M2256 685 c-19 -29 -21 -44 -4 -27 7 7 30 12 53 12 23 0 46 -5 53
-12 13 -13 15 -5 6 30 -5 18 -13 22 -49 22 -34 0 -46 -5 -59 -25z"/>
<path d="M5194 628 l-16 -31 30 24 c16 13 27 27 25 32 -9 15 -23 6 -39 -25z"/>
<path d="M1176 642 c-3 -5 1 -9 9 -9 8 0 15 4 15 9 0 4 -4 8 -9 8 -6 0 -12 -4
-15 -8z"/>
<path d="M3895 640 c-3 -5 -1 -10 4 -10 6 0 11 5 11 10 0 6 -2 10 -4 10 -3 0
-8 -4 -11 -10z"/>
<path d="M5250 636 c0 -2 8 -10 18 -17 15 -13 16 -12 3 4 -13 16 -21 21 -21
13z"/>
<path d="M1627 616 c-4 -10 -1 -13 9 -9 15 6 19 23 5 23 -5 0 -11 -7 -14 -14z"/>
<path d="M4760 591 c0 -5 7 -12 16 -15 24 -9 28 -7 14 9 -14 17 -30 20 -30 6z"/>
<path d="M6054 568 l-29 -33 33 29 c17 17 32 31 32 33 0 8 -8 1 -36 -29z"/>
<path d="M3957 579 c7 -7 15 -10 18 -7 3 3 -2 9 -12 12 -14 6 -15 5 -6 -5z"/>
</g>
</svg>
